<?xml version="1.0" encoding="UTF-8"?>
<svg width="1002px" height="281px" viewBox="0 0 1002 281" version="1.1" xmlns="http://www.w3.org/2000/svg" xmlns:xlink="http://www.w3.org/1999/xlink">
    <!-- Generator: Sketch 44.1 (41455) - http://www.bohemiancoding.com/sketch -->
    <title>dtv-svg</title>
    <desc>Created with Sketch.</desc>
    <defs></defs>
    <g id="Page-1" stroke="none" stroke-width="1" fill="none" fill-rule="evenodd" fill-opacity="0.3">
        <g id="dtv-svg" fill-rule="nonzero" fill="#434343">
            <path d="M54.694,250.781 C78.416,269.143 108.189,280.176 140.492,280.176 C175.843,280.176 208.069,267.052 232.664,245.508 C232.963,245.244 232.815,245.07 232.521,245.244 C221.485,252.615 190.028,268.705 140.493,268.705 C97.445,268.705 70.24,259.1 54.877,250.525 C54.583,250.379 54.473,250.6 54.694,250.781 M149.989,257.93 C184.42,257.93 222.256,248.544 244.884,229.965 C251.076,224.902 256.975,218.165 262.258,209.111 C265.299,203.901 268.274,197.712 270.696,191.628 C270.803,191.331 270.62,191.187 270.396,191.521 C249.354,222.488 188.417,241.803 125.499,241.803 C81.024,241.803 33.171,227.58 14.436,200.425 C14.25,200.174 14.067,200.281 14.179,200.57 C31.631,237.665 84.58,257.93 149.989,257.93 M112.37,196.391 C40.761,196.391 6.995,163.039 0.87,140.279 C0.795,139.949 0.578,140.022 0.578,140.318 C0.578,147.98 1.345,157.868 2.665,164.431 C3.294,167.625 5.894,172.639 9.706,176.635 C27.046,194.709 70.276,220.035 145.145,220.035 C247.151,220.035 270.474,186.056 275.237,174.882 C278.642,166.891 280.407,152.449 280.407,140.318 C280.407,137.382 280.334,135.038 280.222,132.735 C280.222,132.361 280.005,132.331 279.931,132.695 C274.834,160.038 187.682,196.391 112.37,196.391 M14.067,80.319 C9.963,88.462 5.415,102.2 4.063,109.311 C3.469,112.357 3.722,113.82 4.792,116.094 C13.374,134.304 56.788,163.441 158.056,163.441 C219.836,163.441 267.829,148.263 275.605,120.566 C277.037,115.467 277.113,110.084 275.274,102.83 C273.219,94.724 269.37,85.272 266.113,78.634 C266.006,78.418 265.816,78.45 265.854,78.706 C267.064,115.034 165.757,138.447 114.641,138.447 C59.274,138.447 13.082,116.387 13.082,88.533 C13.082,85.857 13.636,83.179 14.327,80.394 C14.396,80.138 14.178,80.095 14.067,80.319 M232.89,35.716 C233.479,36.637 233.772,37.62 233.772,38.944 C233.772,54.484 186.212,81.974 110.504,81.974 C54.876,81.974 44.461,61.338 44.461,48.214 C44.461,43.523 46.26,38.723 50.223,33.848 C50.44,33.558 50.256,33.447 50.006,33.662 C42.779,39.786 36.139,46.677 30.315,54.116 C27.532,57.634 25.804,60.75 25.804,62.618 C25.804,89.814 93.998,109.534 157.762,109.534 C225.703,109.534 256.027,87.355 256.027,67.863 C256.027,60.897 253.315,56.831 246.379,48.946 C241.876,43.818 237.617,39.641 233.108,35.531 C232.89,35.35 232.739,35.496 232.89,35.716 M212.061,20.179 C191.092,7.611 166.744,0.46 140.493,0.46 C114.059,0.46 88.976,7.86 67.932,20.761 C61.619,24.646 58.067,27.759 58.067,31.761 C58.067,43.558 85.637,56.241 134.549,56.241 C182.953,56.241 220.496,42.348 220.496,28.974 C220.497,25.784 217.708,23.551 212.061,20.179" id="path14661"></path>
            <path d="M362.444,100.1 L380.7,100.1 C389.041,100.1 394.6,102.716 398.786,107.757 C403.298,113.341 403.992,121.153 403.992,139.933 C403.992,158.697 403.298,167.566 398.786,173.134 C394.6,178.17 389.041,180.79 380.7,180.79 L362.444,180.79 L362.444,100.1 L362.444,100.1 Z M338.273,78.565 L338.273,202.358 L382.964,202.358 C395.816,202.358 407.468,198.695 415.647,190.505 C429.543,176.615 428.164,158.535 428.164,139.933 C428.164,121.34 429.543,104.281 415.647,90.382 C407.468,82.208 395.816,78.565 382.964,78.565 L338.273,78.565 Z" id="path14663"></path>
            <rect id="rect14665" x="450.514" y="78.62" width="24.142" height="123.738"></rect>
            <path d="M523.171,100.161 L545.929,100.161 C556.533,100.161 563.492,106.948 563.492,116.495 C563.492,126.048 556.534,132.839 545.929,132.839 L523.171,132.839 L523.171,100.161 Z M499.03,78.62 L499.03,202.358 L523.172,202.358 L523.172,152.987 L540.558,152.987 L564.704,202.358 L592.675,202.358 L565.053,148.994 C577.039,144.657 587.634,133.887 587.634,116.496 C587.634,95.82 572.703,78.621 547.521,78.621 L499.03,78.621 L499.03,78.62 Z" id="path14667"></path>
            <polygon id="polygon14669" points="608.258 78.62 608.258 202.358 689.738 202.358 689.738 180.79 632.401 180.79 632.401 150.733 681.237 150.733 681.237 129.193 632.401 129.193 632.401 100.161 689.738 100.161 689.738 78.62"></polygon>
            <path d="M715.439,91.156 C710.042,96.518 706.748,102.61 705.358,109.728 C703.969,116.67 703.276,126.913 703.276,140.48 C703.276,154.043 703.969,164.285 705.358,171.242 C706.748,178.184 710.042,184.442 715.439,189.836 C724.469,198.871 735.591,203.383 748.792,203.383 C772.432,203.383 790.159,189.484 794.334,164.285 L769.81,164.285 C767.204,174.885 760.624,181.832 748.973,181.832 C742.373,181.832 737.151,179.739 733.504,175.413 C728.483,170.02 727.432,164.472 727.432,140.48 C727.432,116.495 728.484,110.946 733.504,105.553 C737.15,101.197 742.373,99.124 748.973,99.124 C760.624,99.124 767.203,106.076 769.81,116.67 L794.333,116.67 C790.158,91.482 772.601,77.583 748.791,77.583 C735.591,77.584 724.469,82.091 715.439,91.156" id="path14671"></path>
            <polygon id="polygon14673" points="800.918 78.62 800.918 100.161 833.245 100.161 833.245 202.358 857.392 202.358 857.392 100.161 889.713 100.161 889.713 78.62"></polygon>
            <polygon id="polygon14675" points="976.34 78.62 951.479 159.24 926.618 78.62 901.621 78.62 942.444 202.358 960.524 202.358 1001.523 78.62"></polygon>
        </g>
    </g>
</svg>