<?xml version="1.0" encoding="UTF-8"?>
<svg width="568px" height="559px" viewBox="0 0 568 559" version="1.1" xmlns="http://www.w3.org/2000/svg" xmlns:xlink="http://www.w3.org/1999/xlink">
    <!-- Generator: Sketch 44.1 (41455) - http://www.bohemiancoding.com/sketch -->
    <title>nbc-svg</title>
    <desc>Created with Sketch.</desc>
    <defs></defs>
    <g id="Page-1" stroke="none" stroke-width="1" fill="none" fill-rule="evenodd">
        <g id="nbc-svg" transform="translate(-1.000000, 0.000000)" fill-rule="nonzero">
            <path d="M284.575,43.267 C275.731,21.19 254.19,-2.653 213.848,0.622 C162.457,6.209 146.442,55.459 154.207,84.841 C133.74,70.981 98.935,64.886 68.556,90.908 C29.333,130.227 50.313,183.4 71.875,196.155 C48.111,193.954 10.554,210.012 2.245,252.016 C-6.594,304.168 33.163,334.571 71.875,334.571 L501.156,334.571 C545.922,334.571 570.761,295.844 567.974,259.321 C563.581,211.654 519.962,193.365 496.169,197.283 C516.048,186.193 542.599,134.094 502.228,93.137 C470.183,62.657 429.33,73.746 414.966,87.041 C422.71,61.578 410.013,8.943 358.036,0.617 C354.446,0.215 350.987,0 347.69,0 C308.012,0.004 290.173,29.007 284.575,43.267" id="path3113" fill="#FFFFFF"></path>
            <path d="M75.707,99.207 C53.042,119.724 44.793,166.212 85.65,193.388 L248.643,305.213 L169.612,124.154 C153.052,81.428 107.748,72.111 75.707,99.207" id="path3115" fill-opacity="0.3" fill="#434343"></path>
            <path d="M216.012,11.176 C189.518,11.715 149.735,43.266 167.44,91.444 L249.176,284.215 L277.899,81.457 C284.546,31.076 246.419,7.819 216.012,11.176" id="path3117" fill-opacity="0.3" fill="#434343"></path>
            <path d="M290.657,73.725 L306.112,73.725 C306.112,73.725 314.366,73.725 315.489,77.618 C309.407,82.585 292.85,83.207 295.048,109.739 L321.032,284.189 L402.212,90.911 C418.817,47.756 383.962,11.715 353.044,10.613 C351.601,10.509 350.151,10.425 348.653,10.425 C320.901,10.424 289.1,30.592 290.657,73.725" id="path3119" fill-opacity="0.3" fill="#434343"></path>
            <path d="M398.944,125.795 L322.159,304.681 L485.106,192.266 C522.667,165.624 516.608,123.03 495.583,101.977 C486.769,92.068 470.585,84.413 453.44,84.413 C433.186,84.41 411.509,95.153 398.944,125.795" id="path3121" fill-opacity="0.3" fill="#434343"></path>
            <path d="M466.862,217.72 L313.835,324.607 L502.253,324.607 C540.909,324.607 565.751,284.748 554.708,248.173 C547.312,225.184 525.429,207.137 500.03,207.111 C489.339,207.116 478.001,210.336 466.862,217.72" id="path3123" fill-opacity="0.3" fill="#434343"></path>
            <path d="M71.316,324.607 L256.954,324.607 L103.89,217.72 C68.53,195 28.767,208.294 14.413,245.996 C2.246,289.156 32.625,324.607 71.316,324.607" id="path3125" fill-opacity="0.3" fill="#434343"></path>
            <path d="M276.901,470.85 L311.339,470.85 C319.255,471.348 333.288,478.26 333.288,494.629 C333.288,511.75 318.724,518.658 310.833,519.438 L276.901,519.438 L276.901,470.85 M276.376,394.629 L304.722,394.629 C314.411,395.152 325.868,402.312 325.868,415.605 C325.868,428.644 317.206,437.334 305.999,438.883 L276.376,438.883 L276.376,394.629 M237.622,362.91 L237.622,551.125 L328.946,551.125 C350.622,551.125 376.389,529.4 376.389,501.012 C376.389,471.352 357.012,456.785 344.752,450.899 C344.752,450.899 367.201,437.859 366.203,409.721 C365.182,371.871 330.217,362.91 318.23,362.91 L237.622,362.91" id="path3127" fill-opacity="0.3" fill="#434343"></path>
            <polygon id="polygon3129" fill-opacity="0.3" fill="#434343" points="97.549 551.125 97.549 442.719 215.919 558.285 215.919 362.91 176.143 362.91 176.143 468.543 57.745 355.256 57.745 551.125"></polygon>
            <path d="M382.784,454.979 C383.782,514.5 426.548,559 481.526,559 C494.561,559 508.294,556.533 522.329,551.125 L522.329,512.775 C511.206,519.572 498.829,522.849 486.702,522.849 C453.432,522.849 422.04,498.23 423.339,453.451 C425.581,417.127 455.318,392.045 487.366,392.045 C499.102,392.045 511.173,395.426 522.329,402.812 L522.329,365.49 C509.321,360.217 496.391,357.859 483.936,357.859 C429.096,357.858 383.837,404.117 382.784,454.979" id="path3131" fill-opacity="0.3" fill="#434343"></path>
        </g>
    </g>
</svg>