<?xml version="1.0" encoding="UTF-8"?>
<svg width="9000px" height="4200px" viewBox="0 0 9000 4200" version="1.1" xmlns="http://www.w3.org/2000/svg" xmlns:xlink="http://www.w3.org/1999/xlink">
    <!-- Generator: Sketch 44.1 (41455) - http://www.bohemiancoding.com/sketch -->
    <title>cnn-svg</title>
    <desc>Created with Sketch.</desc>
    <defs></defs>
    <g id="Page-1" stroke="none" stroke-width="1" fill="none" fill-rule="evenodd">
        <g id="cnn-svg">
            <path d="M2800,1200 L2100,1200 C1602.94373,1200 1200,1602.94373 1200,2100 C1200,2597.05627 1602.94373,3000 2100,3000 L2883,3000 C2947.61732,3000 3000,2947.61732 3000,2883 L3000,817 C3000.43698,446.85704 3249.66532,123.250908 3607.42322,28.3020546 C3965.18112,-66.646799 4342.07709,90.7861047 4526,412 L5400,1941 L5400,817 C5400.43698,446.85704 5649.66532,123.250908 6007.42322,28.3020546 C6365.18112,-66.646799 6742.07709,90.7861047 6926,412 L7800,1941 L7800,0 L8300,0 L8400,100 L8500,0 L9000,0 L9000,3383 C8999.56302,3753.14296 8750.33468,4076.74909 8392.57678,4171.69795 C8034.81888,4266.6468 7657.92291,4109.2139 7474,3788 L6600,2259 L6600,3383 C6599.56302,3753.14296 6350.33468,4076.74909 5992.57678,4171.69795 C5634.81888,4266.6468 5257.92291,4109.2139 5074,3788 L4200,2259 L4200,3383 C4200,3834.21664 3834.21664,4200 3383,4200 L2100,4200 C940.202025,4200 1.42034288e-13,3259.79797 0,2100 C-1.42034288e-13,940.202025 940.202025,4.54747351e-13 2100,0 L2800,0 L2800,500 L2700,600 L2800,700 L2800,1200 Z" id="Shape" fill-opacity="0.3" fill="#434343" fill-rule="nonzero"></path>
            <path d="M2800,600 L2100,600 C1271.57288,600 600,1271.57288 600,2100 C600,2928.42712 1271.57288,3600 2100,3600 L3383,3600 C3502.84579,3600 3600,3502.84579 3600,3383 L3600,817 C3600.16911,718.827107 3666.22866,632.996336 3761.08688,607.700811 C3855.9451,582.405285 3955.97058,623.946715 4005,709 L5595,3491 C5644.02942,3576.05329 5744.0549,3617.59471 5838.91312,3592.29919 C5933.77134,3567.00366 5999.83089,3481.17289 6000,3383 L6000,817 C6000.16911,718.827107 6066.22866,632.996336 6161.08688,607.700811 C6255.9451,582.405285 6355.97058,623.946715 6405,709 L7995,3491 C8044.02942,3576.05329 8144.0549,3617.59471 8238.91312,3592.29919 C8333.77134,3567.00366 8399.83089,3481.17289 8400,3383 L8400,0" id="Shape" stroke="#FFFFFF" stroke-width="200"></path>
        </g>
    </g>
</svg>