<?xml version="1.0" encoding="UTF-8"?>
<svg width="270px" height="270px" viewBox="0 0 270 270" version="1.1" xmlns="http://www.w3.org/2000/svg" xmlns:xlink="http://www.w3.org/1999/xlink">
    <!-- Generator: Sketch 44.1 (41455) - http://www.bohemiancoding.com/sketch -->
    <title>home-depot-logo@logotyp.us</title>
    <desc>Created with Sketch.</desc>
    <defs></defs>
    <g id="Page-1" stroke="none" stroke-width="1" fill="none" fill-rule="evenodd">
        <g id="home-depot-logo@logotyp.us">
            <polygon id="Shape" fill="#FFFFFF" points="0.02 0.011 269.98 0.011 269.98 269.971 0.02 269.971"></polygon>
            <path d="M0.02,0.011 L169.401,0.011 C183.036,0.011 196.673,-0.018 210.28,0.038 C206.509,3.865 202.653,7.664 198.856,11.492 C200.357,13.078 201.944,14.553 203.447,16.112 C206.906,13.731 210.818,11.832 215.07,11.52 C218.897,11.123 222.753,12.115 226.267,13.647 C227.599,14.214 228.847,15.12 230.349,15.262 C231.823,15.177 232.929,13.874 233.44,12.569 C233.865,11.664 233.467,10.585 232.76,9.933 C229.471,6.617 226.154,3.357 222.894,0.04 C238.599,-0.045 254.304,0.04 269.981,0.013 C269.981,15.321 270.008,30.657 269.981,45.993 C266.75,42.819 263.602,39.586 260.398,36.412 C259.548,35.532 258.16,35.078 256.997,35.618 C256.231,35.987 255.494,36.582 255.154,37.404 C254.728,39.049 255.467,40.664 256.118,42.137 C258.103,46.333 258.982,51.068 258.387,55.689 C257.99,58.836 256.855,61.925 255.154,64.619 C254.701,65.27 254.276,65.95 253.879,66.633 C255.523,68.049 256.912,69.75 258.585,71.14 C262.327,67.285 266.182,63.514 269.981,59.686 C269.981,85.284 270.008,110.884 269.981,136.482 C269.243,136.737 268.421,137.248 267.655,136.878 C266.635,136.227 265.869,135.263 265.019,134.441 C255.834,125.312 246.734,116.099 237.522,107 C233.865,110.657 230.266,114.342 226.55,117.914 C228.507,120.124 230.69,122.081 232.731,124.206 C240.102,131.578 247.471,138.948 254.871,146.318 C255.494,146.97 256.231,147.538 256.571,148.389 C256.684,149.324 256.033,150.117 255.778,150.968 C255.409,151.96 256.204,153.151 257.252,153.178 C258.187,153.35 258.982,152.725 259.577,152.102 C263.035,148.614 266.522,145.156 269.981,141.697 L269.981,269.974 L141.676,269.974 C144.965,266.687 148.253,263.425 151.542,260.137 C140.35,248.972 129.17,237.794 118.005,226.601 C114.349,230.116 110.834,233.774 107.205,237.316 C106.439,238.11 105.589,238.875 105.221,239.952 C105.05,241.001 106.014,241.993 107.034,242.05 C107.942,241.937 108.706,241.34 109.614,241.142 C110.407,241.087 111.032,241.71 111.598,242.22 C118.233,248.909 124.895,255.544 131.557,262.206 C133.228,263.962 135.044,265.55 136.602,267.365 C137.312,268.158 136.83,269.178 136.433,269.973 L59.695,269.973 L77.808,251.859 C78.941,250.782 80.104,249.535 80.274,247.89 C80.529,245.991 78.603,244.091 76.703,244.488 C75.115,244.799 73.813,246.047 72.168,246.047 C71.119,245.962 70.325,245.197 69.617,244.517 C55.187,230.116 40.787,215.687 26.386,201.285 C25.422,200.322 24.26,199.387 23.919,197.996 C23.863,196.353 25.025,195.02 25.451,193.518 C25.989,191.619 24.203,189.548 22.274,189.691 C20.943,189.776 19.752,190.54 18.846,191.477 L0.022,210.357 C-0.007,140.25 0.022,70.118 0.022,0.013" id="Shape" fill-opacity="0.3" fill="#434343"></path>
            <path d="M194.744,15.574 C194.999,15.291 195.453,15.035 195.708,15.461 C215.471,35.197 235.221,54.945 254.956,74.708 C248.022,81.637 241.096,88.572 234.177,95.516 C233.269,96.366 232.163,97.075 230.917,97.16 C229.187,97.303 227.458,95.743 227.6,93.985 C227.657,92.257 229.13,90.924 229.159,89.166 C229.216,88.06 228.366,87.24 227.657,86.473 C213.001,71.846 198.373,57.191 183.716,42.534 C182.894,41.741 181.988,40.748 180.74,40.834 C178.897,40.861 177.509,42.562 175.638,42.364 C174.56,42.391 173.681,41.541 173.143,40.663 C172.406,39.133 173.086,37.29 174.193,36.156 C181.053,29.295 187.913,22.435 194.744,15.575 M223.206,21.329 C223.773,20.28 224.85,19.317 226.125,19.486 C227.542,19.601 228.563,20.761 229.498,21.698 C235.162,27.384 240.831,33.063 246.508,38.735 C247.585,39.785 248.86,40.805 249.116,42.364 C249.258,43.979 247.784,45.425 246.225,45.595 C244.921,45.624 243.731,44.915 242.598,44.291 C240.187,42.874 237.466,41.74 234.602,41.881 C233.128,41.852 231.712,42.448 230.378,43.043 C228.819,41.371 227.033,39.869 225.559,38.139 C226.012,36.864 226.608,35.645 226.693,34.283 C226.892,31.195 225.644,28.246 224.084,25.666 C223.291,24.391 222.667,22.802 223.206,21.329 M98.274,36.354 C101.337,33.123 104.569,30.089 107.629,26.885 C110.549,29.719 113.383,32.583 116.247,35.446 C117.182,36.354 116.332,37.884 115.283,38.253 C114.404,38.366 113.638,37.771 112.845,37.487 C109.784,35.985 105.985,35.816 102.924,37.46 C102.13,37.8 101.477,38.48 100.627,38.622 C99.777,37.942 99.068,37.092 98.274,36.354 M96.348,38.167 C100.515,42.193 104.54,46.361 108.651,50.414 C115.086,56.821 121.492,63.285 127.956,69.691 C124.273,73.416 120.569,77.12 116.844,80.803 C116.078,81.652 114.548,82.022 113.811,80.972 C112.904,80.008 113.896,78.818 114.18,77.825 C114.52,77.088 113.926,76.437 113.443,75.927 C106.021,68.533 98.612,61.123 91.218,53.701 C90.538,53.077 89.97,52.313 89.148,51.887 C88.015,51.632 87.136,52.653 86.03,52.71 C85.18,52.624 84.386,51.775 84.5,50.894 C84.556,50.214 84.953,49.619 85.435,49.137 C89.064,45.48 92.749,41.88 96.349,38.165 M111.146,42.701 C110.779,41.766 111.43,40.633 112.422,40.491 C113.159,40.378 113.754,40.943 114.265,41.426 C117.326,44.487 120.387,47.577 123.477,50.611 C124.015,51.206 124.781,51.744 124.838,52.623 C124.951,53.502 124.101,54.353 123.194,54.267 C122.002,54.267 121.096,53.332 120.019,52.935 C118.431,52.199 116.504,52.142 114.945,52.992 C114.123,52.17 113.3,51.32 112.45,50.554 C112.82,49.306 113.16,47.975 112.847,46.67 C112.62,45.197 111.599,44.062 111.146,42.701 M165.433,44.913 C166.199,44.147 167.161,43.581 168.24,43.439 C170.138,43.156 172.123,44.998 171.755,46.926 C171.5,48.627 170.083,49.987 170.195,51.775 C170.479,53.02 171.5,53.871 172.321,54.751 C186.808,69.208 201.294,83.637 215.722,98.123 C216.516,98.833 217.31,99.768 218.444,99.768 C220.145,99.768 221.449,98.493 223.065,98.208 C224.935,97.898 226.778,99.74 226.55,101.611 C226.438,102.886 225.672,103.992 224.794,104.87 C217.507,112.127 210.25,119.442 202.965,126.699 C202.03,127.634 200.839,128.485 199.451,128.485 C197.918,128.57 196.445,127.267 196.247,125.764 C196.048,123.779 197.891,122.305 197.833,120.32 C197.748,119.385 197.097,118.62 196.473,117.939 C183.744,105.24 171.044,92.511 158.316,79.811 C168.833,99.343 179.435,118.819 189.953,138.351 C190.122,138.634 190.264,138.946 190.406,139.286 C189.641,139.993 188.904,140.759 188.167,141.525 C167.104,131.151 146.069,120.66 125.035,110.257 C121.719,108.613 118.43,106.686 114.688,106.232 C113.44,106.06 112.59,107.082 111.683,107.734 C110.747,108.471 109.499,108.924 108.338,108.556 C106.948,107.933 105.985,106.288 106.41,104.785 C106.693,103.765 107.401,102.915 108.138,102.176 C114.942,95.402 121.717,88.599 128.521,81.851 C139.122,87.039 149.752,92.113 160.384,97.302 C160.724,97.556 161.091,97.811 161.404,98.151 L161.886,97.556 L161.489,97.612 C155.905,86.981 150.038,76.493 144.452,65.862 C151.483,58.889 158.429,51.887 165.43,44.913 M128.209,49.703 C128.72,48.768 130.165,48.654 130.845,49.448 C133.708,52.339 136.629,55.231 139.519,58.124 C136.29,61.385 133.039,64.626 129.769,67.847 C129.032,66.997 128.038,66.317 127.472,65.324 C128.407,63.736 129.4,62.12 129.655,60.25 C130.137,57.67 129.712,54.949 128.606,52.568 C128.293,51.66 127.614,50.612 128.209,49.704 M80.612,53.956 C81.179,53.361 81.802,52.737 82.624,52.539 C83.447,52.37 84.467,52.879 84.58,53.786 C84.779,54.778 84.042,55.602 83.844,56.564 C83.729,57.33 84.353,57.869 84.807,58.38 C92.377,65.947 99.917,73.517 107.486,81.057 C107.997,81.54 108.535,82.135 109.272,82.305 C110.179,82.22 110.943,81.625 111.823,81.427 C112.9,81.312 113.891,82.476 113.551,83.495 C113.41,84.261 112.815,84.829 112.304,85.367 C108.618,89.053 104.932,92.738 101.248,96.395 C100.597,97.047 99.746,97.727 98.781,97.501 C98.243,97.273 97.79,96.849 97.591,96.311 C97.308,95.063 98.641,94.042 98.328,92.795 C98.045,92.314 97.648,91.945 97.279,91.548 C93.821,88.117 90.39,84.631 86.904,81.201 C85.69,82.443 84.461,83.671 83.218,84.886 C82.368,84.064 81.517,83.241 80.724,82.363 L84.439,78.677 C81.376,75.673 78.342,72.61 75.31,69.577 C74.658,68.954 74.091,68.274 73.325,67.821 C71.937,67.367 70.604,69.323 69.272,68.246 C68.194,67.481 68.535,65.949 69.414,65.155 C73.127,61.384 76.897,57.7 80.611,53.958 M66.099,68.671 C66.951,68.131 68.226,68.472 68.622,69.436 C69.019,70.598 67.971,71.59 67.942,72.725 C67.913,73.32 68.395,73.745 68.764,74.142 C76.616,81.996 84.441,89.847 92.294,97.671 C93.71,99.201 95.525,96.565 97.056,97.7 C98.048,98.494 97.708,100.052 96.858,100.789 C93.172,104.504 89.459,108.16 85.802,111.873 C85.207,112.441 84.612,113.121 83.79,113.376 C82.882,113.631 81.776,113.063 81.664,112.101 C81.493,110.968 82.514,110.087 82.457,108.982 C82.314,108.5 82.004,108.104 81.664,107.735 C74.231,100.332 66.813,92.914 59.409,85.481 C58.702,84.83 58.106,84.007 57.17,83.667 C56.15,83.611 55.3,84.377 54.307,84.489 C53.457,84.518 52.719,83.752 52.691,82.931 C52.606,82.051 53.23,81.343 53.825,80.748 C57.51,77.062 61.194,73.376 64.853,69.692 C65.249,69.323 65.618,68.955 66.1,68.672 M45.605,88.941 C47.306,87.296 48.95,85.595 50.651,83.923 C53.628,86.816 56.547,89.819 59.525,92.739 C60.036,93.306 60.658,93.816 60.941,94.553 C61.282,95.943 59.696,97.473 58.306,96.849 C56.916,96.225 55.812,95.119 54.478,94.382 C52.239,92.994 49.63,92.114 46.967,92.427 C46.201,91.634 45.351,90.895 44.671,90.046 C44.896,89.592 45.266,89.28 45.606,88.94 M33.246,101.299 C36.421,98.181 39.539,95.034 42.686,91.887 C48.644,97.873 54.616,103.845 60.601,109.803 C63.89,113.062 67.094,116.38 70.41,119.583 C71.346,120.632 72.593,119.754 73.614,119.384 C74.634,118.931 75.826,119.838 75.797,120.914 C75.797,121.651 75.371,122.275 74.89,122.787 C71.035,126.614 67.236,130.44 63.409,134.268 C62.87,134.806 62.189,135.344 61.395,135.288 C60.516,135.374 59.665,134.523 59.75,133.672 C59.807,132.765 60.516,132.028 60.516,131.121 C60.573,130.355 59.921,129.873 59.467,129.363 C50.424,120.377 41.466,111.307 32.394,102.348 C32.678,101.979 32.933,101.639 33.244,101.299 M245.998,98.521 C249.513,101.979 253,105.467 256.459,108.981 C257.564,110.031 256.77,112.128 255.296,112.356 C253.935,112.554 252.886,111.477 251.838,110.768 C249.031,108.839 245.714,107.026 242.2,107.621 C241.264,106.771 240.357,105.891 239.591,104.9 C241.774,102.802 243.872,100.646 245.998,98.521 M30.353,104.275 C31.403,104.672 32.054,105.863 32.904,106.6 C32.451,109.889 34.009,112.978 35.852,115.558 C36.391,116.381 37.042,117.146 37.382,118.081 C37.752,119.329 36.533,120.632 35.285,120.491 C34.576,120.491 34.095,119.896 33.641,119.471 L24.343,110.173 C26.384,108.244 28.284,106.176 30.353,104.276 M93.428,120.266 C99.069,118.45 105.192,118.252 111.003,119.443 C120.869,121.541 129.599,127.324 136.574,134.495 C143.405,141.412 148.848,150.088 150.691,159.753 C151.711,165.054 151.484,170.61 149.955,175.798 C148.452,180.93 145.729,185.664 142.299,189.746 C140.825,188.187 139.21,186.741 137.791,185.154 C137.791,184.388 138.273,183.736 138.416,183 C139.181,180.506 138.416,177.699 136.516,175.884 L94.447,133.787 C93.172,132.483 91.557,131.435 89.714,131.293 C88.211,131.095 86.737,131.633 85.32,132.142 C84.752,132.455 84.385,131.747 84.016,131.462 C82.882,130.244 81.634,129.138 80.501,127.891 L80.472,127.551 C84.243,124.32 88.666,121.797 93.427,120.266 M131.641,118.706 C132.945,119.131 134.135,119.783 135.354,120.407 C139.919,122.619 144.453,124.915 149.047,127.154 C149.443,127.353 149.812,127.665 150.153,127.976 C154.007,131.889 157.892,135.744 161.775,139.628 C163.889,141.868 166.488,143.594 169.372,144.674 C171.384,145.44 173.653,145.44 175.665,144.73 C176.686,144.39 177.792,143.994 178.869,144.334 C179.966,144.786 180.721,145.817 180.824,146.999 C180.739,148.558 179.747,149.862 178.698,150.939 C175.23,154.454 171.734,157.941 168.209,161.4 C167.274,162.25 166.197,163.128 164.892,163.27 C163.022,163.553 161.179,161.57 161.745,159.755 C162.284,157.912 163.021,156.042 162.71,154.114 C162.256,150.881 160.413,148.019 158.372,145.553 C150.69,137.842 142.98,130.159 135.269,122.42 C134.077,121.172 132.774,120.039 131.64,118.707 M218.101,126.418 C220.229,124.292 222.382,122.166 224.509,120.012 C225.444,120.777 226.266,121.684 227.145,122.535 C226.776,125.369 227.741,128.175 229.215,130.557 C229.98,131.918 231.085,133.08 231.766,134.497 C232.135,135.178 231.879,135.943 231.624,136.623 C235.201,139.04 238.322,142.073 240.837,145.581 C243.7,149.635 245.712,154.455 245.599,159.5 C245.628,164.292 243.558,168.883 240.525,172.511 C239.703,171.661 238.739,170.896 238.03,169.932 C238.173,168.882 238.682,167.862 238.427,166.814 C238.144,165.453 237.095,164.489 236.159,163.553 C228.676,156.098 221.22,148.644 213.765,141.187 C213.028,140.45 212.149,139.77 211.099,139.685 C210.108,139.57 209.115,139.854 208.209,140.166 C207.33,139.345 206.452,138.465 205.601,137.615 C209.37,134.384 214.274,132.314 219.292,132.569 C221.22,132.513 223.091,132.966 224.962,133.391 C222.694,131.039 220.284,128.827 218.101,126.418 M69.756,143.058 C71.315,138.721 73.781,134.752 76.701,131.208 C78.147,132.684 79.678,134.099 81.095,135.602 C81.378,136.51 80.642,137.36 80.5,138.267 C79.763,140.705 80.727,143.37 82.514,145.127 C96.29,158.933 110.096,172.71 123.902,186.515 C125.234,187.962 126.85,189.322 128.89,189.634 C130.704,189.918 132.491,189.294 134.164,188.67 L138.756,193.234 C135.41,196.154 131.526,198.45 127.388,200.067 C121.151,202.475 114.177,202.873 107.629,201.428 C97.678,199.244 88.919,193.263 81.917,185.977 C75.454,179.203 70.237,170.896 68.395,161.625 C67.148,155.475 67.546,148.955 69.756,143.057 M198.598,151.251 C198.939,146.942 200.838,142.832 203.674,139.599 C204.495,140.449 205.375,141.3 206.224,142.15 C205.913,143.171 205.43,144.248 205.715,145.324 C205.884,146.289 206.536,147.055 207.217,147.735 C214.701,155.19 222.127,162.674 229.613,170.129 C230.491,170.979 231.341,172.001 232.589,172.341 C233.723,172.654 234.885,172.255 235.99,171.915 C236.842,172.767 237.721,173.617 238.543,174.524 C234.97,177.472 230.52,179.542 225.814,179.542 C221.25,179.74 216.771,178.124 212.973,175.743 C210.222,173.986 207.699,171.859 205.602,169.392 C206.593,172.709 206.368,176.424 204.808,179.542 C203.278,182.603 200.897,185.098 198.543,187.508 C197.693,186.658 196.813,185.777 195.934,184.928 C196.672,183.736 197.154,182.319 196.7,180.931 C196.162,179.513 194.999,178.493 193.979,177.416 C191.87,175.282 189.753,173.156 187.628,171.038 C186.381,169.875 185.048,168.543 183.262,168.429 C182.213,168.317 181.278,168.855 180.399,169.365 C179.521,168.515 178.671,167.635 177.791,166.786 C181.192,163.355 185.076,159.811 190.065,159.188 C194.147,158.507 198.257,160.265 201.149,163.072 C199.335,159.443 198.201,155.36 198.598,151.251 M49.175,161.144 C50.025,160.322 51.131,159.698 52.322,159.614 C54.278,159.499 56.065,161.54 55.525,163.441 C55.1,164.887 54.052,166.162 53.995,167.722 C54.108,169.082 55.243,170.046 56.15,170.953 L99.806,214.609 C100.487,215.261 101.252,215.913 102.216,215.997 C103.86,215.997 105.136,214.779 106.695,214.411 C108.565,214.042 110.437,215.743 110.352,217.614 C110.295,218.89 109.586,220.052 108.707,220.959 L86.737,242.93 C85.773,243.865 84.583,244.687 83.194,244.687 C81.493,244.744 79.905,243.129 80.046,241.398 C80.218,239.698 81.634,238.337 81.663,236.579 C81.606,235.53 80.783,234.736 80.131,234 C73.611,227.451 67.062,220.959 60.571,214.44 C60.316,214.242 59.976,213.674 59.607,214.07 C57.339,216.253 55.157,218.55 52.888,220.732 C51.358,219.202 49.827,217.671 48.296,216.112 C50.494,213.813 52.744,211.564 55.043,209.365 L55.073,208.882 C48.92,202.845 42.882,196.721 36.759,190.627 C35.824,189.748 34.943,188.643 33.641,188.331 C31.855,188.216 30.466,189.606 28.793,189.919 C26.639,190.288 24.682,187.849 25.42,185.836 C25.789,184.419 26.922,183.398 27.914,182.435 C35.001,175.32 42.116,168.26 49.175,161.145 M175.75,168.799 C179.152,171.973 182.356,175.375 185.701,178.635 C192.052,185.013 198.43,191.391 204.808,197.769 C205.261,198.139 205.686,198.648 206.281,198.761 C207.501,198.876 208.464,197.684 209.684,197.911 C210.421,198.166 211.1,198.876 211.016,199.697 C211.016,200.803 210.08,201.569 209.399,202.306 L197.466,214.184 C196.587,215.148 194.942,214.666 194.404,213.589 C193.611,212.257 195.765,210.838 194.632,209.62 C186.405,201.423 178.193,193.211 169.996,184.984 C169.401,184.446 168.891,183.766 168.182,183.396 C166.963,183.056 165.999,184.077 164.866,184.219 C163.987,184.134 163.136,183.369 163.192,182.461 C163.107,181.469 163.844,180.705 164.467,180.053 C168.239,176.31 172.009,172.54 175.75,168.799 M150.464,194.057 C153.836,190.74 157.125,187.31 160.555,184.049 C163.588,187.111 166.65,190.144 169.684,193.205 C170.704,194.197 169.627,195.7 168.578,196.154 C167.841,196.239 167.16,195.785 166.507,195.503 C163.901,194.225 160.895,193.603 158.032,194.34 C156.218,194.709 154.63,195.728 153.042,196.664 C152.192,195.786 151.342,194.908 150.463,194.058 M136.685,207.863 C140.599,203.894 144.567,200.011 148.479,196.069 C154.828,202.335 161.093,208.713 167.473,214.978 C172.349,219.826 177.168,224.731 182.072,229.55 C178.274,233.461 174.363,237.261 170.562,241.143 C170.024,241.739 169.258,242.079 168.55,242.391 C167.841,242.137 166.962,241.882 166.736,241.088 C166.311,239.754 167.7,238.706 167.53,237.402 C166.962,236.296 165.97,235.502 165.119,234.624 L144.453,213.957 C143.235,212.824 142.214,211.464 140.768,210.613 C139.322,210.328 138.019,212.171 136.63,211.178 C135.44,210.413 135.78,208.712 136.685,207.862 M164.184,200.833 C163.731,199.67 164.808,198.309 166.027,198.507 C166.594,198.649 167.018,199.018 167.415,199.415 C170.391,202.421 173.397,205.368 176.346,208.373 C177.309,209.365 178.556,210.216 178.954,211.633 C178.585,212.257 178.188,213.107 177.339,213.192 C175.948,213.334 174.928,212.228 173.681,211.774 C171.957,210.919 169.926,210.929 168.211,211.804 C167.304,210.896 166.425,209.988 165.518,209.111 C166.142,207.779 166.426,206.248 165.971,204.83 C165.631,203.384 164.667,202.194 164.185,200.834 M182.413,208.232 C183.008,207.325 184.454,207.183 185.162,208.034 C188.224,211.125 191.343,214.185 194.375,217.304 C190.888,220.706 187.544,224.277 183.971,227.595 C183.15,226.716 182.27,225.865 181.42,224.986 C184.453,221.245 184.879,215.83 182.838,211.521 C182.468,210.5 181.675,209.252 182.412,208.232" id="Shape" fill="#FFFFFF"></path>
            <path d="M0.02,219.512 C1.153,219.059 2.232,218.349 3.479,218.378 C4.981,218.662 5.917,219.994 6.964,220.986 C21.224,235.189 35.426,249.42 49.657,263.622 C50.45,264.502 51.471,265.38 51.613,266.628 C51.556,267.846 50.903,268.924 50.395,270.001 C33.583,269.972 16.802,269.972 0.019,269.972 C0.019,253.161 -0.01,236.322 0.019,219.512" id="Shape" fill-opacity="0.3" fill="#434343"></path>
            <path d="M131.981,218.746 C137.027,218.321 142.045,220.134 146.212,222.885 C149.472,225.068 152.505,227.591 154.829,230.737 C157.608,234.45 159.308,238.987 159.338,243.664 C159.421,248.994 157.324,254.379 153.526,258.149 C152.652,257.304 151.79,256.444 150.946,255.57 C151.455,254.607 152.051,253.586 151.881,252.452 C151.598,250.751 150.435,249.361 149.272,248.2 L130.138,229.064 C128.834,227.789 127.36,226.399 125.432,226.258 C124.383,226.145 123.447,226.683 122.569,227.193 C121.746,226.285 120.613,225.605 120.102,224.472 C123.22,221.268 127.473,219.028 131.98,218.745 L131.981,218.746 Z" id="Shape" fill="#FFFFFF"></path>
        </g>
    </g>
</svg>