<?xml version="1.0" encoding="UTF-8"?>
<svg width="888px" height="156px" viewBox="0 0 888 156" version="1.1" xmlns="http://www.w3.org/2000/svg" xmlns:xlink="http://www.w3.org/1999/xlink">
    <!-- Generator: Sketch 44.1 (41455) - http://www.bohemiancoding.com/sketch -->
    <title>turner-svg</title>
    <desc>Created with Sketch.</desc>
    <defs></defs>
    <g id="Page-1" stroke="none" stroke-width="1" fill="none" fill-rule="evenodd" fill-opacity="0.3">
        <g id="turner-svg" fill-rule="nonzero" fill="#434343">
            <polygon id="path3008" points="25.130182 151.813458 77.456038 151.813458 94.324248 51.292738 135.634128 51.292738 143.896108 4.130613 8.261978 4.130613 0 51.292738 42.745108 51.292738"></polygon>
            <path d="M155.098608,3.979353 L206.350198,3.979353 L191.840548,88.407568 C191.578708,117.494718 226.534848,114.205068 233.287488,88.407568 L248.885808,4.176688 L299.604148,4.176688 L285.430418,90.190228 C270.773828,178.722508 124.120858,177.195048 140.588958,89.225728 L155.098608,3.979353 Z" id="path3010"></path>
            <path d="M398.696908,1.109568 C380.333328,1.109568 365.446908,16.055078 365.446908,34.515818 C365.446908,52.976558 380.333328,67.953318 398.696908,67.953318 C417.060488,67.953318 431.946908,52.976558 431.946908,34.515818 C431.946908,16.055078 417.060488,1.109568 398.696908,1.109568 Z M311.634408,3.922068 L286.978158,152.390818 L338.728158,152.390818 L364.040658,3.922068 L311.634408,3.922068 Z" id="path3012"></path>
            <path d="M854.699658,1.109568 C836.336078,1.109568 821.449658,16.055078 821.449658,34.515818 C821.449658,52.976558 836.336078,67.953318 854.699658,67.953318 C873.063238,67.953318 887.949658,52.976558 887.949658,34.515818 C887.949658,16.055078 873.063238,1.109568 854.699658,1.109568 Z M767.637158,3.922068 L742.980908,152.390818 L794.730908,152.390818 L820.043408,3.922068 L767.637158,3.922068 Z" id="path3018"></path>
            <path d="M423.158138,152.042118 L473.473258,152.042118 L488.602978,71.467558 C488.602978,43.159558 535.647688,29.132073 530.121748,71.467558 L516.751298,152.042118 L568.121978,152.042118 L583.251698,61.967498 C593.171738,-13.658155 522.909288,-11.636681 491.417808,23.263565 L496.695618,4.263451 L449.195338,4.263451 L423.158138,152.042118 Z" id="path3020"></path>
            <path d="M677.790658,0.203318 C662.275668,0.616553 646.511308,6.029806 630.759408,15.172068 C588.711448,41.475498 570.000148,117.807228 621.665658,147.640818 C675.744998,172.286808 727.009418,134.400618 735.665658,106.109568 L682.478158,106.109568 C673.109528,114.736378 655.268788,120.385028 641.321908,106.297068 C638.998248,102.818208 636.930678,99.125638 636.728158,93.984568 L741.228158,93.984568 C752.105958,53.663378 741.153408,31.542778 723.290658,15.172068 C708.564918,4.376866 693.305648,-0.209917 677.790658,0.203318 Z M677.415658,38.609568 C681.941838,38.589408 686.379048,39.703518 690.384408,42.422068 C696.876388,46.828368 698.625508,52.808378 698.634408,61.078318 L644.821908,60.922068 C647.668788,54.264588 652.365308,48.233898 660.321908,43.328318 C665.657168,40.542878 671.596278,38.635481 677.415658,38.609568 Z" id="path3022"></path>
        </g>
    </g>
</svg>